<svg width="25" height="24" viewBox="0 0 25 24" fill="none" xmlns="http://www.w3.org/2000/svg">
<path d="M9.18382 18.7105C14.4734 18.7585 18.7934 14.5153 18.8414 9.22572V8.59212C19.4846 8.10252 20.051 7.51692 20.5022 6.84492C19.8878 7.11372 19.235 7.29612 18.5726 7.40172C19.2542 6.96972 19.7822 6.32652 20.051 5.56812C19.379 5.94252 18.6686 6.22092 17.9294 6.39372C17.3054 5.68332 16.3934 5.28012 15.443 5.28972C13.571 5.31852 12.0638 6.82572 12.0446 8.68812C12.0254 8.93772 12.0446 9.18732 12.131 9.42732C9.39502 9.29292 6.84142 7.98732 5.14222 5.83692C4.83502 6.37452 4.67182 6.97932 4.68142 7.58412C4.70062 8.70732 5.24782 9.76332 6.15022 10.4353C5.60302 10.4257 5.05582 10.2625 4.58542 9.97452C4.58542 11.5969 5.74702 12.9985 7.34062 13.2865C7.04302 13.3633 6.73582 13.3921 6.41902 13.3729C6.19822 13.3921 5.97742 13.3633 5.77582 13.2865C6.23662 14.6785 7.52302 15.6481 8.99182 15.6769C7.78222 16.6273 6.30382 17.1457 4.75822 17.1553C4.47982 17.1745 4.20142 17.1457 3.93262 17.0689C5.45902 18.1729 7.29262 18.7585 9.17422 18.7297L9.18382 18.7105Z" fill="#2E9092"/>
</svg>
