<svg width="25" height="24" viewBox="0 0 25 24" fill="none" xmlns="http://www.w3.org/2000/svg">
<path d="M12.2179 5.70245C13.2451 5.66405 14.2627 5.68325 15.2899 5.78885C15.7795 5.78885 16.2691 5.86565 16.7395 6.03845C17.3827 6.33605 17.8915 6.85445 18.1891 7.48805C18.3619 7.94885 18.4483 8.43846 18.4387 8.93765C18.4387 9.70566 18.5251 9.95525 18.5251 12.0001C18.5635 13.0273 18.5347 14.0449 18.4387 15.0625C18.4387 15.5617 18.3619 16.0513 18.1891 16.5121C17.8915 17.1553 17.3731 17.6641 16.7395 17.9617C16.2787 18.1345 15.7891 18.2209 15.2899 18.2209C14.5219 18.2209 14.2627 18.3073 12.2179 18.3073C11.2003 18.3457 10.1731 18.3169 9.15554 18.2209C8.66594 18.2209 8.16674 18.1441 7.70594 17.9617C7.07234 17.6641 6.55394 17.1457 6.25634 16.5121C6.08354 16.0513 5.99714 15.5617 6.00674 15.0625C6.00674 14.2945 5.92034 14.0449 5.92034 12.0001C5.88194 10.9729 5.90114 9.95526 6.00674 8.93765C6.00674 8.43846 6.08354 7.94885 6.25634 7.48805C6.40034 7.17125 6.61154 6.88325 6.85154 6.63365C7.05314 6.33605 7.36034 6.12485 7.69634 6.03845C8.15714 5.86565 8.64674 5.77925 9.14594 5.78885C10.1635 5.69285 11.1907 5.66405 12.2083 5.70245H12.2179ZM12.2083 4.33925C11.1619 4.30085 10.1059 4.32965 9.05954 4.41605C8.42594 4.41605 7.78274 4.53125 7.18754 4.76165C6.66914 4.92485 6.19874 5.22245 5.82434 5.60645C5.43074 5.98085 5.14274 6.45125 4.96994 6.96965C4.70114 7.55525 4.58594 8.19845 4.62434 8.84165C4.52834 9.88805 4.49954 10.9441 4.53794 11.9905C4.49954 13.0369 4.52834 14.0929 4.62434 15.1393C4.62434 15.7825 4.73954 16.4161 4.96034 17.0113C5.13314 17.5297 5.42114 18.0001 5.81474 18.3745C6.18914 18.7681 6.65954 19.0657 7.17794 19.2289C7.77314 19.4497 8.41634 19.5649 9.04994 19.5649C10.0963 19.6609 11.1523 19.6897 12.1987 19.6513C13.2451 19.6897 14.3011 19.6609 15.3475 19.5649C15.9907 19.5649 16.6243 19.4497 17.2195 19.2289C18.2563 18.8737 19.0819 18.0481 19.4371 17.0113C19.6675 16.4161 19.7731 15.7825 19.7731 15.1393C19.7731 14.2945 19.8595 14.0353 19.8595 11.9905C19.8979 10.9441 19.8595 9.88805 19.7731 8.84165C19.7731 8.19845 19.6579 7.56485 19.4371 6.96965C19.2643 6.45125 18.9763 5.98085 18.5827 5.60645C18.1987 5.22245 17.7379 4.92485 17.2195 4.76165C16.6243 4.53125 15.9907 4.41605 15.3475 4.41605C14.3011 4.32005 13.2547 4.30085 12.1987 4.32965L12.2083 4.33925ZM12.1987 8.08325C10.0771 8.04485 8.32034 9.74405 8.28194 11.8753V12.0001C8.28194 14.1601 10.0387 15.9169 12.1987 15.9169C14.3587 15.9169 16.1155 14.1601 16.1155 12.0001C16.1155 9.84005 14.3587 8.08325 12.1987 8.08325ZM12.1987 14.5537C10.8163 14.5825 9.66434 13.4785 9.64514 12.0961V12.0001C9.61634 10.6177 10.7203 9.47525 12.1027 9.44645H12.1987C13.5811 9.41765 14.7235 10.5217 14.7523 11.9137V12.0097C14.7811 13.3921 13.6771 14.5345 12.2851 14.5633H12.1891L12.1987 14.5537ZM16.2787 6.97925C15.7603 6.97925 15.3379 7.40165 15.3379 7.92005C15.3379 8.43845 15.7603 8.86085 16.2787 8.86085C16.7971 8.86085 17.2195 8.43845 17.2195 7.92005C17.2195 7.40165 16.7971 6.98885 16.2787 6.97925Z" fill="#2E9092"/>
</svg>
