<svg width="93" height="32" viewBox="0 0 93 32" fill="none" xmlns="http://www.w3.org/2000/svg">
<g clip-path="url(#clip0_2186_15062)">
<path fill-rule="evenodd" clip-rule="evenodd" d="M39.7617 1.8756C40.0875 1.10698 40.6348 0.455323 41.3345 0C42.385 1.15502 42.8989 2.70061 42.7443 4.25455C42.6315 5.07121 42.3704 5.85862 41.9757 6.58129C41.6499 5.15684 41.0755 3.80341 40.2776 2.57738C40.1126 2.32883 39.9413 2.0949 39.7596 1.87351L39.7617 1.8756ZM41.1548 8.82867C41.2906 7.01155 40.8311 5.2007 39.8515 3.66556C38.7801 2.15338 37.1196 1.16546 35.2774 0.948241C34.2791 3.94335 37.1342 8.77018 41.1548 8.82867Z" fill="#9FCE2C"/>
<path d="M6.61254 10.5435C7.8699 10.5435 9.11473 10.7795 10.2865 11.2348C10.936 11.5001 11.5396 11.8635 12.0785 12.3126C12.6007 12.7491 12.6299 13.0875 12.1955 13.6222C11.8989 13.9877 11.5939 14.349 11.2848 14.7041C11.0217 15.0738 10.5204 15.1824 10.1277 14.9505C9.97107 14.8733 9.82069 14.7834 9.67657 14.6853C8.78263 14.0503 7.72787 13.6786 6.63343 13.6075C6.1614 13.5699 5.68728 13.6368 5.24657 13.8039C5.04815 13.8853 4.86018 13.9918 4.691 14.1234C4.24612 14.4367 4.1396 15.0529 4.45289 15.4978C4.51346 15.5855 4.58865 15.6607 4.67429 15.7233C5.01473 15.9928 5.41784 16.1682 5.84601 16.235C6.55824 16.3813 7.27673 16.4982 7.98477 16.6528C8.6427 16.7948 9.29853 16.941 9.93974 17.1415C10.6165 17.3378 11.2347 17.695 11.7464 18.1796C12.8931 19.2865 13.2711 20.9721 12.7072 22.4634C12.3709 23.4429 11.6942 24.27 10.8003 24.7922C9.95227 25.3499 8.98732 25.7028 7.9806 25.824C6.30969 26.0788 4.60118 25.9221 3.00547 25.3645C2.19299 25.0742 1.43481 24.6481 0.764359 24.1029C0.545052 23.9254 0.350809 23.7186 0.187895 23.4889C-0.0961593 23.1589 -0.0564752 22.6597 0.273529 22.3777C0.279795 22.3715 0.286061 22.3673 0.294416 22.361C0.340366 22.3109 0.388404 22.2649 0.44062 22.2211C0.816575 21.914 1.18835 21.6028 1.57057 21.3063C1.89431 21.0118 2.38096 20.993 2.72768 21.2582C2.85926 21.3501 2.98667 21.4504 3.10781 21.5569C4.21479 22.5302 5.67474 23.0043 7.14305 22.8706C7.6861 22.8518 8.20617 22.6388 8.6051 22.267C8.97688 21.9266 9.07087 21.3794 8.83485 20.9345C8.69073 20.6859 8.45681 20.5042 8.18111 20.4228C7.73623 20.2745 7.28299 20.1366 6.82558 20.0322C5.9212 19.8275 5.00638 19.6604 4.09991 19.4557C2.99085 19.251 1.98621 18.6683 1.25728 17.8057C0.0145384 16.2142 0.102261 13.9584 1.46405 12.4671C2.43318 11.4562 3.72813 10.8171 5.11917 10.6667C5.61417 10.602 6.11336 10.5832 6.60836 10.5414L6.61254 10.5435Z" fill="white"/>
<path d="M18.6203 12.6258C18.683 12.5778 18.7415 12.5276 18.7958 12.4713C19.5853 11.5147 20.6985 10.8839 21.9246 10.7001C23.0399 10.4787 24.1887 10.5121 25.2894 10.792C27.4031 11.3037 29.0301 12.9892 29.4708 15.1176C29.6024 15.6669 29.6692 16.2308 29.6671 16.7947C29.6859 19.4348 29.6755 22.0727 29.6755 24.7128C29.6755 25.3101 29.4792 25.5127 28.8818 25.5169C28.1278 25.5231 27.3738 25.5231 26.6198 25.5169C26.0016 25.5127 25.7969 25.3038 25.7969 24.6919C25.7969 22.457 25.8011 20.2222 25.7927 17.9873C25.7948 17.6239 25.7656 17.2626 25.7029 16.9054C25.5066 15.3682 24.2158 14.2048 22.6681 14.1651C22.2128 14.1317 21.7533 14.161 21.3042 14.2529C19.8735 14.5557 18.8041 15.7546 18.6621 17.2104C18.6266 17.5049 18.6078 17.7994 18.6078 18.096C18.6036 20.2493 18.6036 22.4048 18.6078 24.5603C18.6078 24.6543 18.5995 24.7503 18.6078 24.8422C18.6433 25.1764 18.401 25.4751 18.0689 25.5106C18.0355 25.5148 18.0021 25.5148 17.9687 25.5127C17.1061 25.5211 16.2456 25.5273 15.383 25.5127C15.0446 25.5378 14.7501 25.2829 14.725 24.9425C14.723 24.9112 14.723 24.8778 14.725 24.8464C14.7209 24.7524 14.725 24.6584 14.725 24.5645V5.09419C14.6916 4.75583 14.9381 4.45507 15.2764 4.42165C15.3203 4.41747 15.3642 4.41747 15.408 4.42165C16.2414 4.41121 17.0748 4.41121 17.9123 4.42165C18.4136 4.42792 18.6036 4.64096 18.6036 5.15685V12.1454C18.6036 12.2854 18.6141 12.4253 18.6203 12.6258Z" fill="white"/>
<path d="M52.7924 12.6822C52.8196 12.6091 52.8551 12.5381 52.8969 12.4734C53.8367 11.3538 55.1985 10.6729 56.6585 10.5957C60.4201 10.2824 63.7766 12.9537 64.3154 16.6882C64.5514 18.1419 64.4428 19.6311 64.0042 21.0368C63.0623 23.9003 60.4201 25.8636 57.4062 25.9346C56.3515 25.9618 55.3071 25.7383 54.3589 25.2767C53.8242 25.0177 53.348 24.6501 52.9637 24.1948C52.9073 24.1217 52.8258 24.0716 52.736 24.0528V31.104C52.7402 31.2126 52.7381 31.3191 52.7298 31.4277C52.7172 31.741 52.4624 31.9875 52.1491 31.9896C51.2468 32.0021 50.3445 32.0021 49.4423 31.9896C49.1269 31.9979 48.8658 31.7473 48.8574 31.4319C48.8574 31.4194 48.8574 31.4089 48.8574 31.3964C48.8491 31.2899 48.8533 31.1813 48.8533 31.0727V11.7674C48.8616 11.1909 49.0538 10.9967 49.6365 10.9925C50.3905 10.9883 51.1445 10.9883 51.8985 10.9925C52.4624 10.9967 52.665 11.2076 52.6692 11.782V12.6112L52.7924 12.6822ZM56.4329 14.1777C55.6727 14.1902 54.9354 14.445 54.3297 14.9045C52.477 16.3457 52.145 19.0171 53.5861 20.8676C53.8681 21.2289 54.2043 21.5422 54.5866 21.7949C55.9818 22.6492 57.7634 22.5343 59.0375 21.5109C60.1194 20.619 60.6749 19.2384 60.5099 17.8453C60.3679 15.7191 58.5612 14.092 56.4308 14.1756L56.4329 14.1777Z" fill="white"/>
<path d="M70.22 24.0508V31.102C70.22 31.2107 70.2263 31.3172 70.22 31.4258C70.22 31.7391 69.9631 31.9918 69.6498 31.9918C68.7476 32.0064 67.8473 32.0064 66.9451 31.9918C66.6213 31.9939 66.3561 31.7328 66.354 31.4091C66.354 31.407 66.354 31.4028 66.354 31.4007C66.3456 31.2942 66.354 31.1856 66.354 31.077V11.6548C66.3289 11.3164 66.5837 11.0219 66.9221 10.9968C66.9513 10.9947 66.9827 10.9947 67.0119 10.9968C67.5236 10.9843 68.0353 10.9927 68.547 10.9927C68.8708 10.9927 69.1924 10.9843 69.5162 10.9927C69.8483 10.9613 70.1428 11.2057 70.1741 11.5378C70.1783 11.5754 70.1783 11.613 70.1741 11.6506C70.1866 11.968 70.1741 12.2876 70.1741 12.6949C70.2952 12.58 70.3516 12.5341 70.3976 12.4798C71.3395 11.3623 72.6992 10.6814 74.1592 10.6C77.8269 10.2867 81.1311 12.8181 81.7806 16.4419C82.0647 17.9415 81.9832 19.4892 81.5446 20.9513C80.6277 23.8691 77.9501 25.8763 74.8923 25.9389C73.7979 25.964 72.7139 25.7155 71.7406 25.2163C71.1934 24.9239 70.713 24.5208 70.3287 24.0341L70.2242 24.0529L70.22 24.0508ZM70.1992 17.9123C70.1156 19.0966 70.5145 20.2641 71.3082 21.1455C72.7494 22.6974 75.1743 22.7851 76.7261 21.3439C76.8222 21.2541 76.9141 21.1601 77.0018 21.0599C77.8561 20.0928 78.2112 18.7854 77.9668 17.5196C77.6911 15.4039 75.7528 13.9126 73.6371 14.1883C73.1525 14.2509 72.6846 14.4055 72.2585 14.6436C71.0179 15.2639 70.2242 16.5234 70.2012 17.9123H70.1992Z" fill="white"/>
<path d="M87.606 12.8181C87.7376 12.6384 87.842 12.5006 87.9444 12.3648C88.8028 11.214 90.221 10.6229 91.6433 10.8255C91.942 10.8192 92.1885 11.0553 92.1947 11.3539C92.1947 11.3539 92.1947 11.3581 92.1947 11.3602C92.2115 11.5482 92.2198 11.7361 92.2135 11.9241C92.2135 12.6384 92.2198 13.3507 92.2135 14.065C92.2073 14.6393 91.9754 14.8628 91.4052 14.8942C90.8956 14.8983 90.3839 14.9338 89.8784 15.0028C88.8864 15.1594 88.0989 15.9239 87.9151 16.9118C87.8003 17.3817 87.7397 17.8642 87.7376 18.3467C87.7188 20.4604 87.7292 22.5741 87.7292 24.6878C87.7292 25.306 87.5266 25.5149 86.9147 25.5191C86.1481 25.5232 85.3795 25.5232 84.613 25.5191C84.0595 25.5149 83.8548 25.3102 83.8548 24.763V11.757C83.8548 11.2035 84.0574 10.9968 84.6046 10.9947C85.3315 10.9884 86.0583 10.9884 86.7852 10.9947C87.3345 10.9989 87.5392 11.2056 87.5475 11.7529C87.5517 12.062 87.5517 12.3711 87.5559 12.6823C87.5663 12.7303 87.583 12.7763 87.6039 12.8222L87.606 12.8181Z" fill="white"/>
<path d="M39.2687 10.5707C41.94 10.5185 44.4443 11.8657 45.8729 14.1256C46.7961 15.5062 47.2118 17.1645 47.0447 18.8166C46.7961 21.9621 45.1168 24.1113 42.2721 25.3708C38.8405 26.7451 34.9139 25.5984 32.7605 22.595C31.783 21.2353 31.3214 19.5727 31.453 17.9039C31.6451 14.6373 33.3537 12.4087 36.3049 11.1054C37.2427 10.7169 38.2536 10.5352 39.2666 10.5728L39.2687 10.5707ZM43.1535 18.1754C43.1452 17.954 43.1264 17.7326 43.093 17.5133C43.0491 17.2335 42.9781 16.9598 42.8778 16.6946C42.1405 14.6937 39.9203 13.6702 37.9194 14.4096C37.2928 14.6415 36.7352 15.032 36.3049 15.5437C35.4423 16.5609 35.1269 17.9331 35.4632 19.2239C35.8579 21.3084 37.8672 22.6764 39.9517 22.2817C40.3631 22.2044 40.7579 22.0582 41.1213 21.8535C42.4538 21.1225 43.2433 19.6897 43.1535 18.1733V18.1754Z" fill="white"/>
</g>
<defs>
<clipPath id="clip0_2186_15062">
<rect width="92.2175" height="32" fill="white"/>
</clipPath>
</defs>
</svg>
