<svg width="20" height="20" viewBox="0 0 20 20" fill="none" xmlns="http://www.w3.org/2000/svg">
<path d="M18.0003 11.3307H11.3337V17.9974C11.3337 18.351 11.1932 18.6902 10.9431 18.9402C10.6931 19.1903 10.3539 19.3307 10.0003 19.3307C9.6467 19.3307 9.30757 19.1903 9.05752 18.9402C8.80747 18.6902 8.66699 18.351 8.66699 17.9974V11.3307H2.00033C1.6467 11.3307 1.30757 11.1903 1.05752 10.9402C0.807468 10.6902 0.666992 10.351 0.666992 9.9974C0.666992 9.64377 0.807468 9.30464 1.05752 9.05459C1.30757 8.80454 1.6467 8.66406 2.00033 8.66406H8.66699V1.9974C8.66699 1.64377 8.80747 1.30463 9.05752 1.05459C9.30757 0.804538 9.6467 0.664062 10.0003 0.664062C10.3539 0.664062 10.6931 0.804538 10.9431 1.05459C11.1932 1.30463 11.3337 1.64377 11.3337 1.9974V8.66406H18.0003C18.3539 8.66406 18.6931 8.80454 18.9431 9.05459C19.1932 9.30464 19.3337 9.64377 19.3337 9.9974C19.3337 10.351 19.1932 10.6902 18.9431 10.9402C18.6931 11.1903 18.3539 11.3307 18.0003 11.3307Z" fill="#121212"/>
</svg>
